<svg width="420" height="536" viewBox="0 0 420 536" fill="none" xmlns="http://www.w3.org/2000/svg">
<circle cx="35" cy="17" r="16" stroke="white" stroke-opacity="0.57" stroke-width="1.5"/>
<path d="M35 10L28 17M28 17L35 24M28 17H42" stroke="white" stroke-opacity="0.57" stroke-width="1.5" stroke-linecap="round" stroke-linejoin="round"/>
<circle cx="99" cy="17" r="16" transform="rotate(-180 99 17)" stroke="white" stroke-width="1.5"/>
<path d="M99 24L106 17M106 17L99 10M106 17L92 17" stroke="white" stroke-width="1.5" stroke-linecap="round" stroke-linejoin="round"/>
<path d="M132 108.818V113.466H138.458C138.175 114.96 137.324 116.226 136.047 117.077L139.942 120.098C142.211 118.004 143.52 114.928 143.52 111.273C143.52 110.422 143.444 109.604 143.302 108.818L132 108.818Z" fill="#4285F4"/>
<path d="M125.275 113.284L124.396 113.957L121.287 116.378C123.262 120.295 127.309 123 131.999 123C135.239 123 137.956 121.931 139.941 120.098L136.047 117.077C134.978 117.797 133.614 118.233 131.999 118.233C128.88 118.233 126.229 116.128 125.28 113.291L125.275 113.284Z" fill="#34A853"/>
<path d="M121.287 105.622C120.469 107.237 120 109.058 120 111C120 112.942 120.469 114.764 121.287 116.378C121.287 116.389 125.28 113.28 125.28 113.28C125.04 112.56 124.898 111.797 124.898 111C124.898 110.204 125.04 109.44 125.28 108.72L121.287 105.622Z" fill="#FBBC05"/>
<path d="M132 103.778C133.767 103.778 135.338 104.389 136.592 105.567L140.029 102.131C137.945 100.189 135.24 99 132 99C127.309 99 123.262 101.695 121.287 105.622L125.28 108.72C126.229 105.884 128.88 103.778 132 103.778Z" fill="#EA4335"/>
<path d="M163.919 114.178C163.919 113.932 163.881 113.712 163.805 113.519C163.734 113.319 163.603 113.141 163.409 112.982C163.222 112.818 162.955 112.66 162.609 112.508C162.27 112.35 161.83 112.186 161.291 112.016C160.693 111.828 160.137 111.617 159.621 111.383C159.105 111.148 158.651 110.876 158.259 110.565C157.872 110.255 157.57 109.897 157.354 109.493C157.137 109.083 157.028 108.608 157.028 108.069C157.028 107.542 157.14 107.062 157.362 106.628C157.591 106.194 157.913 105.822 158.329 105.512C158.745 105.195 159.234 104.952 159.797 104.782C160.365 104.612 160.992 104.527 161.678 104.527C162.627 104.527 163.447 104.7 164.139 105.046C164.836 105.392 165.375 105.86 165.756 106.452C166.137 107.044 166.327 107.709 166.327 108.447H163.919C163.919 108.049 163.834 107.697 163.664 107.393C163.5 107.088 163.248 106.848 162.908 106.672C162.574 106.496 162.152 106.408 161.643 106.408C161.15 106.408 160.74 106.481 160.412 106.628C160.09 106.774 159.847 106.974 159.683 107.226C159.524 107.478 159.445 107.759 159.445 108.069C159.445 108.304 159.501 108.515 159.612 108.702C159.724 108.884 159.891 109.057 160.113 109.221C160.336 109.379 160.611 109.528 160.939 109.669C161.273 109.804 161.66 109.938 162.1 110.073C162.803 110.284 163.418 110.519 163.945 110.776C164.479 111.034 164.921 111.327 165.272 111.655C165.63 111.983 165.896 112.353 166.072 112.763C166.254 113.173 166.345 113.639 166.345 114.16C166.345 114.711 166.236 115.203 166.02 115.637C165.803 116.07 165.492 116.439 165.088 116.744C164.684 117.049 164.197 117.28 163.629 117.438C163.066 117.597 162.437 117.676 161.739 117.676C161.118 117.676 160.503 117.594 159.894 117.43C159.29 117.26 158.742 117.008 158.25 116.674C157.758 116.334 157.365 115.906 157.072 115.391C156.779 114.869 156.633 114.26 156.633 113.562H159.059C159.059 113.967 159.123 114.312 159.252 114.6C159.387 114.881 159.574 115.112 159.814 115.294C160.061 115.47 160.348 115.599 160.676 115.681C161.004 115.763 161.358 115.804 161.739 115.804C162.231 115.804 162.636 115.736 162.952 115.602C163.274 115.461 163.515 115.268 163.673 115.021C163.837 114.775 163.919 114.494 163.919 114.178ZM170.493 107.99V117.5H168.164V107.99H170.493ZM168.006 105.503C168.006 105.157 168.123 104.87 168.357 104.642C168.598 104.413 168.92 104.299 169.324 104.299C169.729 104.299 170.048 104.413 170.282 104.642C170.522 104.87 170.643 105.157 170.643 105.503C170.643 105.843 170.522 106.127 170.282 106.355C170.048 106.584 169.729 106.698 169.324 106.698C168.92 106.698 168.598 106.584 168.357 106.355C168.123 106.127 168.006 105.843 168.006 105.503ZM178.755 107.99H180.864V117.21C180.864 118.071 180.677 118.801 180.302 119.398C179.933 120.002 179.414 120.459 178.746 120.77C178.078 121.086 177.302 121.244 176.417 121.244C176.036 121.244 175.623 121.191 175.178 121.086C174.738 120.98 174.313 120.813 173.903 120.585C173.499 120.362 173.162 120.072 172.893 119.715L173.938 118.344C174.255 118.713 174.612 118.991 175.011 119.179C175.409 119.372 175.84 119.469 176.303 119.469C176.771 119.469 177.17 119.381 177.498 119.205C177.832 119.035 178.087 118.783 178.263 118.449C178.444 118.121 178.535 117.717 178.535 117.236V110.161L178.755 107.99ZM172.33 112.859V112.675C172.33 111.948 172.418 111.289 172.594 110.697C172.77 110.1 173.021 109.587 173.35 109.159C173.684 108.731 174.085 108.4 174.554 108.166C175.028 107.932 175.562 107.814 176.153 107.814C176.78 107.814 177.308 107.929 177.735 108.157C178.169 108.386 178.526 108.711 178.808 109.133C179.095 109.555 179.317 110.056 179.476 110.636C179.64 111.21 179.766 111.843 179.854 112.534V113.035C179.771 113.709 179.64 114.327 179.458 114.89C179.282 115.452 179.048 115.944 178.755 116.366C178.462 116.782 178.099 117.104 177.665 117.333C177.231 117.562 176.722 117.676 176.136 117.676C175.55 117.676 175.022 117.556 174.554 117.315C174.085 117.075 173.684 116.738 173.35 116.305C173.021 115.871 172.77 115.361 172.594 114.775C172.418 114.189 172.33 113.551 172.33 112.859ZM174.65 112.675V112.859C174.65 113.27 174.691 113.653 174.773 114.011C174.855 114.368 174.981 114.685 175.151 114.96C175.321 115.229 175.535 115.44 175.793 115.593C176.051 115.745 176.358 115.821 176.716 115.821C177.196 115.821 177.589 115.722 177.894 115.522C178.204 115.317 178.438 115.039 178.597 114.688C178.761 114.33 178.866 113.929 178.913 113.483V112.104C178.884 111.752 178.819 111.427 178.72 111.128C178.626 110.829 178.494 110.571 178.324 110.354C178.154 110.138 177.938 109.968 177.674 109.845C177.41 109.722 177.097 109.66 176.733 109.66C176.382 109.66 176.074 109.739 175.811 109.897C175.547 110.05 175.33 110.264 175.16 110.539C174.99 110.814 174.861 111.134 174.773 111.497C174.691 111.86 174.65 112.253 174.65 112.675ZM185.232 110.021V117.5H182.912V107.99H185.092L185.232 110.021ZM184.863 112.402H184.178C184.184 111.711 184.277 111.084 184.459 110.521C184.641 109.959 184.896 109.476 185.224 109.071C185.558 108.667 185.953 108.356 186.41 108.14C186.867 107.923 187.377 107.814 187.939 107.814C188.396 107.814 188.81 107.879 189.179 108.008C189.548 108.137 189.864 108.342 190.128 108.623C190.397 108.904 190.603 109.273 190.743 109.73C190.89 110.182 190.963 110.738 190.963 111.4V117.5H188.625V111.383C188.625 110.949 188.561 110.606 188.432 110.354C188.309 110.103 188.127 109.924 187.887 109.818C187.652 109.713 187.362 109.66 187.017 109.66C186.659 109.66 186.346 109.733 186.076 109.88C185.812 110.021 185.59 110.217 185.408 110.469C185.232 110.721 185.098 111.011 185.004 111.339C184.91 111.667 184.863 112.021 184.863 112.402ZM204.788 104.703H207.205V113.202C207.205 114.181 206.994 115.004 206.572 115.672C206.15 116.334 205.576 116.835 204.85 117.175C204.123 117.509 203.297 117.676 202.371 117.676C201.434 117.676 200.599 117.509 199.866 117.175C199.134 116.835 198.56 116.334 198.144 115.672C197.728 115.004 197.52 114.181 197.52 113.202V104.703H199.937V113.202C199.937 113.8 200.036 114.289 200.235 114.67C200.435 115.045 200.716 115.323 201.079 115.505C201.442 115.687 201.873 115.777 202.371 115.777C202.875 115.777 203.306 115.687 203.663 115.505C204.026 115.323 204.305 115.045 204.498 114.67C204.691 114.289 204.788 113.8 204.788 113.202V104.703ZM211.644 109.818V121.156H209.314V107.99H211.468L211.644 109.818ZM217.752 112.648V112.833C217.752 113.524 217.67 114.166 217.506 114.758C217.348 115.344 217.113 115.856 216.803 116.296C216.492 116.729 216.105 117.069 215.643 117.315C215.186 117.556 214.658 117.676 214.061 117.676C213.475 117.676 212.965 117.564 212.531 117.342C212.098 117.113 211.731 116.791 211.433 116.375C211.134 115.959 210.894 115.476 210.712 114.925C210.536 114.368 210.404 113.762 210.316 113.105V112.517C210.404 111.819 210.536 111.187 210.712 110.618C210.894 110.044 211.134 109.549 211.433 109.133C211.731 108.711 212.095 108.386 212.522 108.157C212.956 107.929 213.463 107.814 214.043 107.814C214.646 107.814 215.177 107.929 215.634 108.157C216.097 108.386 216.486 108.714 216.803 109.142C217.119 109.569 217.356 110.079 217.515 110.671C217.673 111.263 217.752 111.922 217.752 112.648ZM215.423 112.833V112.648C215.423 112.227 215.385 111.837 215.309 111.479C215.232 111.116 215.115 110.8 214.957 110.53C214.799 110.255 214.594 110.041 214.342 109.889C214.09 109.736 213.785 109.66 213.428 109.66C213.07 109.66 212.763 109.719 212.505 109.836C212.247 109.953 212.036 110.12 211.872 110.337C211.708 110.554 211.579 110.812 211.485 111.11C211.397 111.403 211.339 111.729 211.31 112.086V113.545C211.362 113.979 211.465 114.368 211.617 114.714C211.77 115.06 211.992 115.335 212.285 115.54C212.584 115.745 212.971 115.848 213.445 115.848C213.803 115.848 214.107 115.769 214.359 115.61C214.611 115.452 214.816 115.235 214.975 114.96C215.133 114.679 215.247 114.356 215.317 113.993C215.388 113.63 215.423 113.243 215.423 112.833ZM227.253 115.048L229.802 104.703H231.182L231.27 106.883L228.545 117.5H227.086L227.253 115.048ZM225.645 104.703L227.736 115.013V117.5H226.146L223.245 104.703H225.645ZM233.915 114.969L235.972 104.703H238.38L235.479 117.5H233.889L233.915 114.969ZM231.841 104.703L234.39 115.083L234.539 117.5H233.08L230.364 106.874L230.47 104.703H231.841ZM242.194 107.99V117.5H239.865V107.99H242.194ZM239.707 105.503C239.707 105.157 239.824 104.87 240.059 104.642C240.299 104.413 240.621 104.299 241.025 104.299C241.43 104.299 241.749 104.413 241.983 104.642C242.224 104.87 242.344 105.157 242.344 105.503C242.344 105.843 242.224 106.127 241.983 106.355C241.749 106.584 241.43 106.698 241.025 106.698C240.621 106.698 240.299 106.584 240.059 106.355C239.824 106.127 239.707 105.843 239.707 105.503ZM248.909 107.99V109.66H243.46V107.99H248.909ZM244.919 105.652H247.248V114.758C247.248 115.039 247.286 115.256 247.362 115.408C247.438 115.561 247.553 115.663 247.705 115.716C247.857 115.769 248.039 115.795 248.25 115.795C248.402 115.795 248.543 115.786 248.672 115.769C248.801 115.751 248.909 115.733 248.997 115.716L249.006 117.456C248.812 117.521 248.593 117.573 248.347 117.614C248.106 117.655 247.834 117.676 247.529 117.676C247.008 117.676 246.551 117.588 246.158 117.412C245.766 117.23 245.461 116.94 245.244 116.542C245.027 116.138 244.919 115.604 244.919 114.942V105.652ZM252.732 104V117.5H250.403V104H252.732ZM252.363 112.402H251.678C251.678 111.74 251.766 111.131 251.941 110.574C252.117 110.018 252.366 109.534 252.688 109.124C253.011 108.708 253.395 108.386 253.84 108.157C254.291 107.929 254.789 107.814 255.334 107.814C255.803 107.814 256.228 107.882 256.608 108.017C256.995 108.146 257.326 108.354 257.602 108.641C257.877 108.928 258.088 109.303 258.234 109.766C258.387 110.223 258.463 110.779 258.463 111.436V117.5H256.125V111.418C256.125 110.979 256.061 110.633 255.932 110.381C255.803 110.123 255.618 109.938 255.378 109.827C255.144 109.716 254.854 109.66 254.508 109.66C254.133 109.66 253.811 109.733 253.541 109.88C253.271 110.021 253.049 110.217 252.873 110.469C252.703 110.721 252.574 111.011 252.486 111.339C252.404 111.667 252.363 112.021 252.363 112.402ZM275.153 110.882V115.865C274.966 116.105 274.67 116.366 274.266 116.647C273.867 116.929 273.346 117.172 272.701 117.377C272.057 117.576 271.266 117.676 270.328 117.676C269.514 117.676 268.77 117.541 268.096 117.271C267.422 116.996 266.842 116.595 266.355 116.067C265.869 115.54 265.494 114.896 265.23 114.134C264.967 113.372 264.835 112.502 264.835 111.523V110.68C264.835 109.701 264.958 108.831 265.204 108.069C265.456 107.308 265.813 106.663 266.276 106.136C266.745 105.608 267.305 105.207 267.955 104.932C268.611 104.656 269.344 104.519 270.152 104.519C271.236 104.519 272.127 104.697 272.824 105.055C273.527 105.412 274.066 105.904 274.441 106.531C274.816 107.152 275.051 107.867 275.145 108.676H272.789C272.725 108.23 272.596 107.841 272.402 107.507C272.209 107.167 271.934 106.903 271.576 106.716C271.225 106.522 270.768 106.426 270.205 106.426C269.73 106.426 269.312 106.52 268.948 106.707C268.585 106.895 268.28 107.167 268.034 107.524C267.788 107.882 267.601 108.324 267.472 108.852C267.349 109.379 267.287 109.982 267.287 110.662V111.523C267.287 112.209 267.357 112.818 267.498 113.352C267.639 113.879 267.841 114.324 268.104 114.688C268.374 115.045 268.705 115.317 269.098 115.505C269.496 115.687 269.947 115.777 270.451 115.777C270.908 115.777 271.286 115.739 271.585 115.663C271.89 115.581 272.133 115.484 272.314 115.373C272.496 115.262 272.637 115.153 272.736 115.048V112.648H270.196V110.882H275.153ZM276.85 112.842V112.657C276.85 111.96 276.949 111.318 277.148 110.732C277.348 110.141 277.638 109.628 278.019 109.194C278.399 108.761 278.865 108.424 279.416 108.184C279.967 107.938 280.594 107.814 281.297 107.814C282.012 107.814 282.645 107.938 283.195 108.184C283.752 108.424 284.221 108.761 284.602 109.194C284.982 109.628 285.272 110.141 285.472 110.732C285.671 111.318 285.771 111.96 285.771 112.657V112.842C285.771 113.533 285.671 114.175 285.472 114.767C285.272 115.353 284.982 115.865 284.602 116.305C284.221 116.738 283.755 117.075 283.204 117.315C282.653 117.556 282.023 117.676 281.314 117.676C280.611 117.676 279.981 117.556 279.425 117.315C278.868 117.075 278.399 116.738 278.019 116.305C277.638 115.865 277.348 115.353 277.148 114.767C276.949 114.175 276.85 113.533 276.85 112.842ZM279.17 112.657V112.842C279.17 113.258 279.211 113.647 279.293 114.011C279.375 114.374 279.501 114.693 279.671 114.969C279.841 115.244 280.061 115.461 280.33 115.619C280.605 115.771 280.934 115.848 281.314 115.848C281.689 115.848 282.012 115.771 282.281 115.619C282.551 115.461 282.771 115.244 282.94 114.969C283.116 114.693 283.245 114.374 283.327 114.011C283.409 113.647 283.45 113.258 283.45 112.842V112.657C283.45 112.247 283.409 111.863 283.327 111.506C283.245 111.143 283.116 110.823 282.94 110.548C282.771 110.267 282.548 110.047 282.272 109.889C282.003 109.725 281.678 109.643 281.297 109.643C280.922 109.643 280.6 109.725 280.33 109.889C280.061 110.047 279.841 110.267 279.671 110.548C279.501 110.823 279.375 111.143 279.293 111.506C279.211 111.863 279.17 112.247 279.17 112.657ZM287.045 112.842V112.657C287.045 111.96 287.145 111.318 287.344 110.732C287.543 110.141 287.833 109.628 288.214 109.194C288.595 108.761 289.061 108.424 289.611 108.184C290.162 107.938 290.789 107.814 291.492 107.814C292.207 107.814 292.84 107.938 293.391 108.184C293.947 108.424 294.416 108.761 294.797 109.194C295.178 109.628 295.468 110.141 295.667 110.732C295.866 111.318 295.966 111.96 295.966 112.657V112.842C295.966 113.533 295.866 114.175 295.667 114.767C295.468 115.353 295.178 115.865 294.797 116.305C294.416 116.738 293.95 117.075 293.399 117.315C292.849 117.556 292.219 117.676 291.51 117.676C290.807 117.676 290.177 117.556 289.62 117.315C289.063 117.075 288.595 116.738 288.214 116.305C287.833 115.865 287.543 115.353 287.344 114.767C287.145 114.175 287.045 113.533 287.045 112.842ZM289.365 112.657V112.842C289.365 113.258 289.406 113.647 289.488 114.011C289.57 114.374 289.696 114.693 289.866 114.969C290.036 115.244 290.256 115.461 290.525 115.619C290.801 115.771 291.129 115.848 291.51 115.848C291.885 115.848 292.207 115.771 292.477 115.619C292.746 115.461 292.966 115.244 293.136 114.969C293.312 114.693 293.44 114.374 293.522 114.011C293.604 113.647 293.646 113.258 293.646 112.842V112.657C293.646 112.247 293.604 111.863 293.522 111.506C293.44 111.143 293.312 110.823 293.136 110.548C292.966 110.267 292.743 110.047 292.468 109.889C292.198 109.725 291.873 109.643 291.492 109.643C291.117 109.643 290.795 109.725 290.525 109.889C290.256 110.047 290.036 110.267 289.866 110.548C289.696 110.823 289.57 111.143 289.488 111.506C289.406 111.863 289.365 112.247 289.365 112.657ZM303.7 107.99H305.81V117.21C305.81 118.071 305.622 118.801 305.247 119.398C304.878 120.002 304.359 120.459 303.691 120.77C303.023 121.086 302.247 121.244 301.362 121.244C300.981 121.244 300.568 121.191 300.123 121.086C299.684 120.98 299.259 120.813 298.849 120.585C298.444 120.362 298.107 120.072 297.838 119.715L298.884 118.344C299.2 118.713 299.558 118.991 299.956 119.179C300.354 119.372 300.785 119.469 301.248 119.469C301.717 119.469 302.115 119.381 302.443 119.205C302.777 119.035 303.032 118.783 303.208 118.449C303.39 118.121 303.48 117.717 303.48 117.236V110.161L303.7 107.99ZM297.275 112.859V112.675C297.275 111.948 297.363 111.289 297.539 110.697C297.715 110.1 297.967 109.587 298.295 109.159C298.629 108.731 299.03 108.4 299.499 108.166C299.974 107.932 300.507 107.814 301.099 107.814C301.726 107.814 302.253 107.929 302.681 108.157C303.114 108.386 303.472 108.711 303.753 109.133C304.04 109.555 304.263 110.056 304.421 110.636C304.585 111.21 304.711 111.843 304.799 112.534V113.035C304.717 113.709 304.585 114.327 304.403 114.89C304.228 115.452 303.993 115.944 303.7 116.366C303.407 116.782 303.044 117.104 302.61 117.333C302.177 117.562 301.667 117.676 301.081 117.676C300.495 117.676 299.968 117.556 299.499 117.315C299.03 117.075 298.629 116.738 298.295 116.305C297.967 115.871 297.715 115.361 297.539 114.775C297.363 114.189 297.275 113.551 297.275 112.859ZM299.596 112.675V112.859C299.596 113.27 299.637 113.653 299.719 114.011C299.801 114.368 299.927 114.685 300.097 114.96C300.267 115.229 300.48 115.44 300.738 115.593C300.996 115.745 301.304 115.821 301.661 115.821C302.142 115.821 302.534 115.722 302.839 115.522C303.149 115.317 303.384 115.039 303.542 114.688C303.706 114.33 303.812 113.929 303.858 113.483V112.104C303.829 111.752 303.765 111.427 303.665 111.128C303.571 110.829 303.439 110.571 303.27 110.354C303.1 110.138 302.883 109.968 302.619 109.845C302.355 109.722 302.042 109.66 301.679 109.66C301.327 109.66 301.02 109.739 300.756 109.897C300.492 110.05 300.275 110.264 300.105 110.539C299.936 110.814 299.807 111.134 299.719 111.497C299.637 111.86 299.596 112.253 299.596 112.675ZM310.362 104V117.5H308.033V104H310.362ZM316.849 117.676C316.128 117.676 315.48 117.559 314.906 117.324C314.332 117.09 313.843 116.765 313.438 116.349C313.04 115.927 312.732 115.438 312.516 114.881C312.305 114.318 312.199 113.715 312.199 113.07V112.719C312.199 111.986 312.305 111.321 312.516 110.724C312.727 110.12 313.025 109.602 313.412 109.168C313.799 108.734 314.262 108.4 314.801 108.166C315.34 107.932 315.935 107.814 316.585 107.814C317.259 107.814 317.854 107.929 318.369 108.157C318.885 108.38 319.315 108.696 319.661 109.106C320.007 109.517 320.268 110.009 320.443 110.583C320.619 111.151 320.707 111.781 320.707 112.473V113.448H313.254V111.849H318.422V111.673C318.41 111.304 318.34 110.967 318.211 110.662C318.082 110.352 317.883 110.105 317.613 109.924C317.344 109.736 316.995 109.643 316.567 109.643C316.222 109.643 315.92 109.719 315.662 109.871C315.41 110.018 315.199 110.229 315.029 110.504C314.865 110.773 314.742 111.096 314.66 111.471C314.578 111.846 314.537 112.262 314.537 112.719V113.07C314.537 113.469 314.59 113.838 314.695 114.178C314.807 114.518 314.968 114.813 315.179 115.065C315.396 115.312 315.653 115.505 315.952 115.646C316.257 115.78 316.603 115.848 316.989 115.848C317.476 115.848 317.915 115.754 318.308 115.566C318.706 115.373 319.052 115.089 319.345 114.714L320.514 115.927C320.314 116.22 320.045 116.501 319.705 116.771C319.371 117.04 318.967 117.26 318.492 117.43C318.018 117.594 317.47 117.676 316.849 117.676Z" fill="black"/>
<rect x="19.5" y="81.5" width="399" height="59" rx="9.5" stroke="black"/>
<rect x="19" y="189" width="400" height="60" rx="10" fill="white"/>
<path d="M166.367 221.565H168.442C168.376 222.357 168.155 223.062 167.778 223.682C167.402 224.296 166.874 224.781 166.193 225.135C165.512 225.489 164.685 225.666 163.711 225.666C162.964 225.666 162.292 225.533 161.694 225.268C161.096 224.996 160.584 224.615 160.158 224.122C159.732 223.624 159.406 223.024 159.179 222.321C158.957 221.618 158.847 220.832 158.847 219.963V218.959C158.847 218.09 158.96 217.304 159.187 216.602C159.419 215.899 159.751 215.298 160.183 214.8C160.615 214.297 161.132 213.912 161.735 213.646C162.344 213.381 163.028 213.248 163.786 213.248C164.749 213.248 165.562 213.425 166.226 213.779C166.89 214.133 167.405 214.623 167.77 215.249C168.141 215.874 168.368 216.59 168.451 217.398H166.375C166.32 216.878 166.198 216.433 166.01 216.062C165.828 215.691 165.556 215.409 165.197 215.215C164.837 215.016 164.367 214.917 163.786 214.917C163.31 214.917 162.895 215.005 162.541 215.182C162.186 215.359 161.89 215.619 161.652 215.962C161.414 216.306 161.235 216.729 161.113 217.232C160.997 217.73 160.938 218.3 160.938 218.942V219.963C160.938 220.572 160.991 221.125 161.096 221.624C161.207 222.116 161.373 222.539 161.594 222.894C161.821 223.248 162.109 223.522 162.458 223.715C162.806 223.909 163.224 224.006 163.711 224.006C164.303 224.006 164.782 223.912 165.147 223.724C165.518 223.535 165.797 223.262 165.985 222.902C166.179 222.537 166.306 222.091 166.367 221.565ZM172.145 218.229V225.5H170.144V216.519H172.053L172.145 218.229ZM174.892 216.46L174.875 218.32C174.754 218.298 174.621 218.281 174.477 218.27C174.339 218.259 174.2 218.253 174.062 218.253C173.719 218.253 173.417 218.303 173.157 218.403C172.897 218.497 172.679 218.635 172.501 218.818C172.33 218.995 172.197 219.211 172.103 219.465C172.009 219.72 171.954 220.005 171.937 220.32L171.48 220.354C171.48 219.789 171.536 219.266 171.646 218.785C171.757 218.303 171.923 217.88 172.145 217.515C172.371 217.149 172.654 216.864 172.991 216.66C173.334 216.455 173.73 216.353 174.178 216.353C174.3 216.353 174.43 216.364 174.568 216.386C174.712 216.408 174.82 216.433 174.892 216.46ZM179.939 225.666C179.275 225.666 178.674 225.558 178.138 225.342C177.606 225.121 177.153 224.814 176.776 224.421C176.406 224.028 176.121 223.566 175.921 223.035C175.722 222.503 175.623 221.931 175.623 221.316V220.984C175.623 220.282 175.725 219.645 175.93 219.075C176.134 218.505 176.419 218.018 176.785 217.614C177.15 217.205 177.582 216.892 178.08 216.676C178.578 216.46 179.117 216.353 179.698 216.353C180.34 216.353 180.902 216.46 181.383 216.676C181.865 216.892 182.263 217.196 182.579 217.589C182.9 217.977 183.138 218.439 183.292 218.976C183.453 219.512 183.533 220.104 183.533 220.752V221.607H176.594V220.171H181.558V220.013C181.547 219.653 181.475 219.316 181.342 219C181.215 218.685 181.018 218.431 180.752 218.237C180.487 218.043 180.133 217.946 179.69 217.946C179.358 217.946 179.062 218.018 178.802 218.162C178.547 218.3 178.334 218.502 178.163 218.768C177.991 219.034 177.858 219.355 177.764 219.731C177.676 220.102 177.631 220.52 177.631 220.984V221.316C177.631 221.709 177.684 222.075 177.789 222.412C177.9 222.744 178.06 223.035 178.271 223.284C178.481 223.533 178.735 223.729 179.034 223.873C179.333 224.011 179.673 224.081 180.055 224.081C180.537 224.081 180.965 223.984 181.342 223.79C181.718 223.596 182.045 223.322 182.321 222.968L183.375 223.989C183.182 224.271 182.93 224.543 182.62 224.803C182.31 225.057 181.931 225.265 181.483 225.425C181.04 225.586 180.526 225.666 179.939 225.666ZM190.157 223.699V219.416C190.157 219.095 190.099 218.818 189.983 218.585C189.867 218.353 189.69 218.173 189.452 218.046C189.219 217.919 188.926 217.855 188.572 217.855C188.245 217.855 187.963 217.91 187.725 218.021C187.487 218.132 187.302 218.281 187.169 218.469C187.036 218.657 186.97 218.87 186.97 219.108H184.978C184.978 218.754 185.063 218.411 185.235 218.079C185.406 217.747 185.655 217.451 185.982 217.191C186.308 216.931 186.699 216.726 187.152 216.577C187.606 216.427 188.115 216.353 188.68 216.353C189.355 216.353 189.952 216.466 190.473 216.693C190.998 216.92 191.411 217.263 191.709 217.722C192.014 218.176 192.166 218.746 192.166 219.432V223.425C192.166 223.834 192.194 224.202 192.249 224.529C192.31 224.85 192.396 225.129 192.506 225.367V225.5H190.456C190.362 225.284 190.287 225.01 190.232 224.678C190.182 224.341 190.157 224.014 190.157 223.699ZM190.448 220.038L190.464 221.275H189.028C188.658 221.275 188.331 221.311 188.049 221.383C187.767 221.449 187.531 221.549 187.343 221.682C187.155 221.814 187.014 221.975 186.92 222.163C186.826 222.351 186.779 222.564 186.779 222.802C186.779 223.04 186.834 223.259 186.945 223.458C187.056 223.652 187.216 223.804 187.426 223.915C187.642 224.025 187.902 224.081 188.207 224.081C188.616 224.081 188.973 223.998 189.277 223.832C189.587 223.66 189.831 223.452 190.008 223.209C190.185 222.96 190.279 222.725 190.29 222.503L190.938 223.392C190.871 223.618 190.758 223.862 190.597 224.122C190.437 224.382 190.226 224.631 189.966 224.869C189.712 225.102 189.405 225.292 189.045 225.442C188.691 225.591 188.281 225.666 187.816 225.666C187.23 225.666 186.707 225.55 186.248 225.317C185.788 225.079 185.429 224.761 185.168 224.363C184.908 223.959 184.778 223.502 184.778 222.993C184.778 222.517 184.867 222.097 185.044 221.731C185.227 221.361 185.492 221.051 185.841 220.802C186.195 220.553 186.627 220.365 187.136 220.237C187.645 220.104 188.226 220.038 188.879 220.038H190.448ZM198.375 216.519V217.979H193.312V216.519H198.375ZM194.772 214.319H196.773V223.018C196.773 223.295 196.812 223.508 196.889 223.657C196.972 223.801 197.086 223.898 197.229 223.948C197.373 223.998 197.542 224.022 197.736 224.022C197.874 224.022 198.007 224.014 198.134 223.998C198.262 223.981 198.364 223.964 198.441 223.948L198.45 225.475C198.284 225.525 198.09 225.569 197.869 225.608C197.653 225.647 197.404 225.666 197.122 225.666C196.662 225.666 196.256 225.586 195.901 225.425C195.547 225.259 195.271 224.991 195.071 224.62C194.872 224.249 194.772 223.757 194.772 223.143V214.319ZM203.878 225.666C203.214 225.666 202.614 225.558 202.077 225.342C201.546 225.121 201.092 224.814 200.716 224.421C200.345 224.028 200.06 223.566 199.861 223.035C199.662 222.503 199.562 221.931 199.562 221.316V220.984C199.562 220.282 199.664 219.645 199.869 219.075C200.074 218.505 200.359 218.018 200.724 217.614C201.089 217.205 201.521 216.892 202.019 216.676C202.517 216.46 203.057 216.353 203.638 216.353C204.28 216.353 204.841 216.46 205.323 216.676C205.804 216.892 206.203 217.196 206.518 217.589C206.839 217.977 207.077 218.439 207.232 218.976C207.392 219.512 207.473 220.104 207.473 220.752V221.607H200.533V220.171H205.497V220.013C205.486 219.653 205.414 219.316 205.281 219C205.154 218.685 204.958 218.431 204.692 218.237C204.426 218.043 204.072 217.946 203.629 217.946C203.297 217.946 203.001 218.018 202.741 218.162C202.487 218.3 202.274 218.502 202.102 218.768C201.931 219.034 201.798 219.355 201.704 219.731C201.615 220.102 201.571 220.52 201.571 220.984V221.316C201.571 221.709 201.623 222.075 201.729 222.412C201.839 222.744 202 223.035 202.21 223.284C202.42 223.533 202.675 223.729 202.974 223.873C203.272 224.011 203.613 224.081 203.995 224.081C204.476 224.081 204.905 223.984 205.281 223.79C205.658 223.596 205.984 223.322 206.261 222.968L207.315 223.989C207.121 224.271 206.869 224.543 206.56 224.803C206.25 225.057 205.871 225.265 205.422 225.425C204.98 225.586 204.465 225.666 203.878 225.666ZM218.548 214.646L214.9 225.5H212.343L217.124 212.703H218.759L218.548 214.646ZM221.598 225.5L217.933 214.646L217.713 212.703H219.356L224.164 225.5H221.598ZM221.431 220.745V222.652H214.566V220.745H221.431ZM229.209 223.848C229.537 223.848 229.83 223.783 230.088 223.654C230.346 223.525 230.551 223.344 230.703 223.109C230.861 222.875 230.946 222.603 230.958 222.292H233.146C233.135 222.937 232.953 223.514 232.602 224.023C232.25 224.533 231.781 224.938 231.195 225.236C230.615 225.529 229.965 225.676 229.244 225.676C228.512 225.676 227.873 225.553 227.328 225.307C226.783 225.061 226.329 224.718 225.966 224.278C225.608 223.839 225.339 223.329 225.157 222.749C224.981 222.169 224.894 221.548 224.894 220.886V220.604C224.894 219.942 224.981 219.321 225.157 218.741C225.339 218.161 225.608 217.651 225.966 217.212C226.329 216.772 226.783 216.43 227.328 216.184C227.873 215.938 228.509 215.814 229.235 215.814C230.003 215.814 230.677 215.964 231.257 216.263C231.843 216.562 232.3 216.983 232.628 217.528C232.962 218.073 233.135 218.715 233.146 219.453H230.958C230.946 219.113 230.87 218.809 230.729 218.539C230.589 218.27 230.39 218.053 230.132 217.889C229.874 217.725 229.561 217.643 229.191 217.643C228.799 217.643 228.471 217.725 228.207 217.889C227.949 218.053 227.747 218.278 227.601 218.565C227.46 218.847 227.36 219.163 227.302 219.515C227.249 219.86 227.223 220.224 227.223 220.604V220.886C227.223 221.272 227.249 221.642 227.302 221.993C227.36 222.345 227.46 222.661 227.601 222.942C227.747 223.218 227.949 223.438 228.207 223.602C228.471 223.766 228.805 223.848 229.209 223.848ZM238.596 223.848C238.924 223.848 239.217 223.783 239.475 223.654C239.732 223.525 239.938 223.344 240.09 223.109C240.248 222.875 240.333 222.603 240.345 222.292H242.533C242.521 222.937 242.34 223.514 241.988 224.023C241.637 224.533 241.168 224.938 240.582 225.236C240.002 225.529 239.352 225.676 238.631 225.676C237.898 225.676 237.26 225.553 236.715 225.307C236.17 225.061 235.716 224.718 235.353 224.278C234.995 223.839 234.726 223.329 234.544 222.749C234.368 222.169 234.28 221.548 234.28 220.886V220.604C234.28 219.942 234.368 219.321 234.544 218.741C234.726 218.161 234.995 217.651 235.353 217.212C235.716 216.772 236.17 216.43 236.715 216.184C237.26 215.938 237.896 215.814 238.622 215.814C239.39 215.814 240.063 215.964 240.644 216.263C241.229 216.562 241.687 216.983 242.015 217.528C242.349 218.073 242.521 218.715 242.533 219.453H240.345C240.333 219.113 240.257 218.809 240.116 218.539C239.976 218.27 239.776 218.053 239.519 217.889C239.261 217.725 238.947 217.643 238.578 217.643C238.186 217.643 237.857 217.725 237.594 217.889C237.336 218.053 237.134 218.278 236.987 218.565C236.847 218.847 236.747 219.163 236.688 219.515C236.636 219.86 236.609 220.224 236.609 220.604V220.886C236.609 221.272 236.636 221.642 236.688 221.993C236.747 222.345 236.847 222.661 236.987 222.942C237.134 223.218 237.336 223.438 237.594 223.602C237.857 223.766 238.191 223.848 238.596 223.848ZM243.667 220.842V220.657C243.667 219.96 243.767 219.318 243.966 218.732C244.165 218.141 244.455 217.628 244.836 217.194C245.217 216.761 245.683 216.424 246.233 216.184C246.784 215.938 247.411 215.814 248.114 215.814C248.829 215.814 249.462 215.938 250.013 216.184C250.569 216.424 251.038 216.761 251.419 217.194C251.8 217.628 252.09 218.141 252.289 218.732C252.488 219.318 252.588 219.96 252.588 220.657V220.842C252.588 221.533 252.488 222.175 252.289 222.767C252.09 223.353 251.8 223.865 251.419 224.305C251.038 224.738 250.572 225.075 250.021 225.315C249.471 225.556 248.841 225.676 248.132 225.676C247.429 225.676 246.799 225.556 246.242 225.315C245.686 225.075 245.217 224.738 244.836 224.305C244.455 223.865 244.165 223.353 243.966 222.767C243.767 222.175 243.667 221.533 243.667 220.842ZM245.987 220.657V220.842C245.987 221.258 246.028 221.647 246.11 222.011C246.192 222.374 246.318 222.693 246.488 222.969C246.658 223.244 246.878 223.461 247.147 223.619C247.423 223.771 247.751 223.848 248.132 223.848C248.507 223.848 248.829 223.771 249.099 223.619C249.368 223.461 249.588 223.244 249.758 222.969C249.934 222.693 250.062 222.374 250.145 222.011C250.227 221.647 250.268 221.258 250.268 220.842V220.657C250.268 220.247 250.227 219.863 250.145 219.506C250.062 219.143 249.934 218.823 249.758 218.548C249.588 218.267 249.365 218.047 249.09 217.889C248.82 217.725 248.495 217.643 248.114 217.643C247.739 217.643 247.417 217.725 247.147 217.889C246.878 218.047 246.658 218.267 246.488 218.548C246.318 218.823 246.192 219.143 246.11 219.506C246.028 219.863 245.987 220.247 245.987 220.657ZM259.936 223.241V215.99H262.273V225.5H260.076L259.936 223.241ZM260.234 221.272L260.955 221.255C260.955 221.894 260.885 222.482 260.744 223.021C260.604 223.561 260.384 224.029 260.085 224.428C259.792 224.82 259.42 225.128 258.969 225.351C258.518 225.567 257.984 225.676 257.369 225.676C256.9 225.676 256.473 225.611 256.086 225.482C255.699 225.348 255.365 225.14 255.084 224.858C254.809 224.571 254.595 224.205 254.442 223.76C254.29 223.309 254.214 222.767 254.214 222.134V215.99H256.534V222.151C256.534 222.468 256.569 222.731 256.64 222.942C256.716 223.153 256.818 223.326 256.947 223.461C257.082 223.59 257.237 223.684 257.413 223.742C257.595 223.795 257.788 223.821 257.993 223.821C258.556 223.821 258.998 223.71 259.32 223.487C259.648 223.259 259.883 222.954 260.023 222.573C260.164 222.187 260.234 221.753 260.234 221.272ZM266.606 218.021V225.5H264.286V215.99H266.466L266.606 218.021ZM266.237 220.402H265.552C265.558 219.711 265.651 219.084 265.833 218.521C266.015 217.959 266.27 217.476 266.598 217.071C266.932 216.667 267.327 216.356 267.784 216.14C268.241 215.923 268.751 215.814 269.313 215.814C269.771 215.814 270.184 215.879 270.553 216.008C270.922 216.137 271.238 216.342 271.502 216.623C271.771 216.904 271.977 217.273 272.117 217.73C272.264 218.182 272.337 218.738 272.337 219.4V225.5H269.999V219.383C269.999 218.949 269.935 218.606 269.806 218.354C269.683 218.103 269.501 217.924 269.261 217.818C269.026 217.713 268.736 217.66 268.391 217.66C268.033 217.66 267.72 217.733 267.45 217.88C267.187 218.021 266.964 218.217 266.782 218.469C266.606 218.721 266.472 219.011 266.378 219.339C266.284 219.667 266.237 220.021 266.237 220.402ZM278.885 215.99V217.66H273.436V215.99H278.885ZM274.895 213.652H277.224V222.758C277.224 223.039 277.262 223.256 277.338 223.408C277.414 223.561 277.528 223.663 277.681 223.716C277.833 223.769 278.015 223.795 278.226 223.795C278.378 223.795 278.519 223.786 278.647 223.769C278.776 223.751 278.885 223.733 278.973 223.716L278.981 225.456C278.788 225.521 278.568 225.573 278.322 225.614C278.082 225.655 277.81 225.676 277.505 225.676C276.983 225.676 276.526 225.588 276.134 225.412C275.741 225.23 275.437 224.94 275.22 224.542C275.003 224.138 274.895 223.604 274.895 222.942V213.652Z" fill="#219D80"/>
<rect x="18.5" y="188.5" width="401" height="61" stroke="black"/>
<path d="M24.5312 302.633L20.7656 313H19.2266L23.5625 301.625H24.5547L24.5312 302.633ZM27.6875 313L23.9141 302.633L23.8906 301.625H24.8828L29.2344 313H27.6875ZM27.4922 308.789V310.023H21.1016V308.789H27.4922ZM32.1094 301V313H30.6562V301H32.1094ZM35.875 305.875V313H34.4297V304.547H35.8359L35.875 305.875ZM38.5156 304.5L38.5078 305.844C38.388 305.818 38.2734 305.802 38.1641 305.797C38.0599 305.786 37.9401 305.781 37.8047 305.781C37.4714 305.781 37.1771 305.833 36.9219 305.938C36.6667 306.042 36.4505 306.188 36.2734 306.375C36.0964 306.562 35.9557 306.786 35.8516 307.047C35.7526 307.302 35.6875 307.583 35.6562 307.891L35.25 308.125C35.25 307.615 35.2995 307.135 35.3984 306.688C35.5026 306.24 35.6615 305.844 35.875 305.5C36.0885 305.151 36.3594 304.88 36.6875 304.688C37.0208 304.49 37.4167 304.391 37.875 304.391C37.9792 304.391 38.099 304.404 38.2344 304.43C38.3698 304.451 38.4635 304.474 38.5156 304.5ZM43.2031 313.156C42.6146 313.156 42.0807 313.057 41.6016 312.859C41.1276 312.656 40.7188 312.372 40.375 312.008C40.0365 311.643 39.776 311.211 39.5938 310.711C39.4115 310.211 39.3203 309.664 39.3203 309.07V308.742C39.3203 308.055 39.4219 307.443 39.625 306.906C39.8281 306.365 40.1042 305.906 40.4531 305.531C40.8021 305.156 41.1979 304.872 41.6406 304.68C42.0833 304.487 42.5417 304.391 43.0156 304.391C43.6198 304.391 44.1406 304.495 44.5781 304.703C45.0208 304.911 45.3828 305.203 45.6641 305.578C45.9453 305.948 46.1536 306.385 46.2891 306.891C46.4245 307.391 46.4922 307.938 46.4922 308.531V309.18H40.1797V308H45.0469V307.891C45.026 307.516 44.9479 307.151 44.8125 306.797C44.6823 306.443 44.474 306.151 44.1875 305.922C43.901 305.693 43.5104 305.578 43.0156 305.578C42.6875 305.578 42.3854 305.648 42.1094 305.789C41.8333 305.924 41.5964 306.128 41.3984 306.398C41.2005 306.669 41.0469 307 40.9375 307.391C40.8281 307.781 40.7734 308.232 40.7734 308.742V309.07C40.7734 309.471 40.8281 309.849 40.9375 310.203C41.0521 310.552 41.2161 310.859 41.4297 311.125C41.6484 311.391 41.9115 311.599 42.2188 311.75C42.5312 311.901 42.8854 311.977 43.2812 311.977C43.7917 311.977 44.224 311.872 44.5781 311.664C44.9323 311.456 45.2422 311.177 45.5078 310.828L46.3828 311.523C46.2005 311.799 45.9688 312.062 45.6875 312.312C45.4062 312.562 45.0599 312.766 44.6484 312.922C44.2422 313.078 43.7604 313.156 43.2031 313.156ZM53.1641 311.555V307.203C53.1641 306.87 53.0964 306.581 52.9609 306.336C52.8307 306.086 52.6328 305.893 52.3672 305.758C52.1016 305.622 51.7734 305.555 51.3828 305.555C51.0182 305.555 50.6979 305.617 50.4219 305.742C50.151 305.867 49.9375 306.031 49.7812 306.234C49.6302 306.438 49.5547 306.656 49.5547 306.891H48.1094C48.1094 306.589 48.1875 306.289 48.3438 305.992C48.5 305.695 48.724 305.427 49.0156 305.188C49.3125 304.943 49.6667 304.75 50.0781 304.609C50.4948 304.464 50.9583 304.391 51.4688 304.391C52.0833 304.391 52.625 304.495 53.0938 304.703C53.5677 304.911 53.9375 305.227 54.2031 305.648C54.474 306.065 54.6094 306.589 54.6094 307.219V311.156C54.6094 311.438 54.6328 311.737 54.6797 312.055C54.7318 312.372 54.8073 312.646 54.9062 312.875V313H53.3984C53.3255 312.833 53.2682 312.612 53.2266 312.336C53.1849 312.055 53.1641 311.794 53.1641 311.555ZM53.4141 307.875L53.4297 308.891H51.9688C51.5573 308.891 51.1901 308.924 50.8672 308.992C50.5443 309.055 50.2734 309.151 50.0547 309.281C49.8359 309.411 49.6693 309.576 49.5547 309.773C49.4401 309.966 49.3828 310.193 49.3828 310.453C49.3828 310.719 49.4427 310.961 49.5625 311.18C49.6823 311.398 49.862 311.573 50.1016 311.703C50.3464 311.828 50.6458 311.891 51 311.891C51.4427 311.891 51.8333 311.797 52.1719 311.609C52.5104 311.422 52.7786 311.193 52.9766 310.922C53.1797 310.651 53.2891 310.388 53.3047 310.133L53.9219 310.828C53.8854 311.047 53.7865 311.289 53.625 311.555C53.4635 311.82 53.2474 312.076 52.9766 312.32C52.7109 312.56 52.3932 312.76 52.0234 312.922C51.6589 313.078 51.2474 313.156 50.7891 313.156C50.2161 313.156 49.7135 313.044 49.2812 312.82C48.8542 312.596 48.5208 312.297 48.2812 311.922C48.0469 311.542 47.9297 311.117 47.9297 310.648C47.9297 310.195 48.0182 309.797 48.1953 309.453C48.3724 309.104 48.6276 308.815 48.9609 308.586C49.2943 308.352 49.6953 308.174 50.1641 308.055C50.6328 307.935 51.1562 307.875 51.7344 307.875H53.4141ZM62.2109 311.359V301H63.6641V313H62.3359L62.2109 311.359ZM56.5234 308.867V308.703C56.5234 308.057 56.6016 307.471 56.7578 306.945C56.9193 306.414 57.1458 305.958 57.4375 305.578C57.7344 305.198 58.0859 304.906 58.4922 304.703C58.9036 304.495 59.362 304.391 59.8672 304.391C60.3984 304.391 60.862 304.484 61.2578 304.672C61.6589 304.854 61.9974 305.122 62.2734 305.477C62.5547 305.826 62.776 306.247 62.9375 306.742C63.099 307.237 63.2109 307.797 63.2734 308.422V309.141C63.2161 309.76 63.1042 310.318 62.9375 310.812C62.776 311.307 62.5547 311.729 62.2734 312.078C61.9974 312.427 61.6589 312.695 61.2578 312.883C60.8568 313.065 60.388 313.156 59.8516 313.156C59.3568 313.156 58.9036 313.049 58.4922 312.836C58.0859 312.622 57.7344 312.323 57.4375 311.938C57.1458 311.552 56.9193 311.099 56.7578 310.578C56.6016 310.052 56.5234 309.482 56.5234 308.867ZM57.9766 308.703V308.867C57.9766 309.289 58.0182 309.685 58.1016 310.055C58.1901 310.424 58.3255 310.75 58.5078 311.031C58.6901 311.312 58.9219 311.534 59.2031 311.695C59.4844 311.852 59.8203 311.93 60.2109 311.93C60.6901 311.93 61.0833 311.828 61.3906 311.625C61.7031 311.422 61.9531 311.154 62.1406 310.82C62.3281 310.487 62.474 310.125 62.5781 309.734V307.852C62.5156 307.565 62.4245 307.289 62.3047 307.023C62.1901 306.753 62.0391 306.513 61.8516 306.305C61.6693 306.091 61.4427 305.922 61.1719 305.797C60.9062 305.672 60.5911 305.609 60.2266 305.609C59.8307 305.609 59.4896 305.693 59.2031 305.859C58.9219 306.021 58.6901 306.245 58.5078 306.531C58.3255 306.812 58.1901 307.141 58.1016 307.516C58.0182 307.885 57.9766 308.281 57.9766 308.703ZM68.2891 312.125L70.6406 304.547H72.1875L68.7969 314.305C68.7188 314.513 68.6146 314.737 68.4844 314.977C68.3594 315.221 68.1979 315.453 68 315.672C67.8021 315.891 67.5625 316.068 67.2812 316.203C67.0052 316.344 66.6745 316.414 66.2891 316.414C66.1745 316.414 66.0286 316.398 65.8516 316.367C65.6745 316.336 65.5495 316.31 65.4766 316.289L65.4688 315.117C65.5104 315.122 65.5755 315.128 65.6641 315.133C65.7578 315.143 65.8229 315.148 65.8594 315.148C66.1875 315.148 66.4661 315.104 66.6953 315.016C66.9245 314.932 67.1172 314.789 67.2734 314.586C67.4349 314.388 67.5729 314.115 67.6875 313.766L68.2891 312.125ZM66.5625 304.547L68.7578 311.109L69.1328 312.633L68.0938 313.164L64.9844 304.547H66.5625ZM85.1094 306.516V307.742H78.9531V306.516H85.1094ZM79.1875 301.625V313H77.6797V301.625H79.1875ZM86.4219 301.625V313H84.9219V301.625H86.4219ZM93.8672 311.555V307.203C93.8672 306.87 93.7995 306.581 93.6641 306.336C93.5339 306.086 93.3359 305.893 93.0703 305.758C92.8047 305.622 92.4766 305.555 92.0859 305.555C91.7214 305.555 91.401 305.617 91.125 305.742C90.8542 305.867 90.6406 306.031 90.4844 306.234C90.3333 306.438 90.2578 306.656 90.2578 306.891H88.8125C88.8125 306.589 88.8906 306.289 89.0469 305.992C89.2031 305.695 89.4271 305.427 89.7188 305.188C90.0156 304.943 90.3698 304.75 90.7812 304.609C91.1979 304.464 91.6615 304.391 92.1719 304.391C92.7865 304.391 93.3281 304.495 93.7969 304.703C94.2708 304.911 94.6406 305.227 94.9062 305.648C95.1771 306.065 95.3125 306.589 95.3125 307.219V311.156C95.3125 311.438 95.3359 311.737 95.3828 312.055C95.4349 312.372 95.5104 312.646 95.6094 312.875V313H94.1016C94.0286 312.833 93.9714 312.612 93.9297 312.336C93.888 312.055 93.8672 311.794 93.8672 311.555ZM94.1172 307.875L94.1328 308.891H92.6719C92.2604 308.891 91.8932 308.924 91.5703 308.992C91.2474 309.055 90.9766 309.151 90.7578 309.281C90.5391 309.411 90.3724 309.576 90.2578 309.773C90.1432 309.966 90.0859 310.193 90.0859 310.453C90.0859 310.719 90.1458 310.961 90.2656 311.18C90.3854 311.398 90.5651 311.573 90.8047 311.703C91.0495 311.828 91.349 311.891 91.7031 311.891C92.1458 311.891 92.5365 311.797 92.875 311.609C93.2135 311.422 93.4818 311.193 93.6797 310.922C93.8828 310.651 93.9922 310.388 94.0078 310.133L94.625 310.828C94.5885 311.047 94.4896 311.289 94.3281 311.555C94.1667 311.82 93.9505 312.076 93.6797 312.32C93.4141 312.56 93.0964 312.76 92.7266 312.922C92.362 313.078 91.9505 313.156 91.4922 313.156C90.9193 313.156 90.4167 313.044 89.9844 312.82C89.5573 312.596 89.224 312.297 88.9844 311.922C88.75 311.542 88.6328 311.117 88.6328 310.648C88.6328 310.195 88.7214 309.797 88.8984 309.453C89.0755 309.104 89.3307 308.815 89.6641 308.586C89.9974 308.352 90.3984 308.174 90.8672 308.055C91.3359 307.935 91.8594 307.875 92.4375 307.875H94.1172ZM100.031 311.695L102.344 304.547H103.82L100.781 313H99.8125L100.031 311.695ZM98.1016 304.547L100.484 311.734L100.648 313H99.6797L96.6172 304.547H98.1016ZM108.609 313.156C108.021 313.156 107.487 313.057 107.008 312.859C106.534 312.656 106.125 312.372 105.781 312.008C105.443 311.643 105.182 311.211 105 310.711C104.818 310.211 104.727 309.664 104.727 309.07V308.742C104.727 308.055 104.828 307.443 105.031 306.906C105.234 306.365 105.51 305.906 105.859 305.531C106.208 305.156 106.604 304.872 107.047 304.68C107.49 304.487 107.948 304.391 108.422 304.391C109.026 304.391 109.547 304.495 109.984 304.703C110.427 304.911 110.789 305.203 111.07 305.578C111.352 305.948 111.56 306.385 111.695 306.891C111.831 307.391 111.898 307.938 111.898 308.531V309.18H105.586V308H110.453V307.891C110.432 307.516 110.354 307.151 110.219 306.797C110.089 306.443 109.88 306.151 109.594 305.922C109.307 305.693 108.917 305.578 108.422 305.578C108.094 305.578 107.792 305.648 107.516 305.789C107.24 305.924 107.003 306.128 106.805 306.398C106.607 306.669 106.453 307 106.344 307.391C106.234 307.781 106.18 308.232 106.18 308.742V309.07C106.18 309.471 106.234 309.849 106.344 310.203C106.458 310.552 106.622 310.859 106.836 311.125C107.055 311.391 107.318 311.599 107.625 311.75C107.938 311.901 108.292 311.977 108.688 311.977C109.198 311.977 109.63 311.872 109.984 311.664C110.339 311.456 110.648 311.177 110.914 310.828L111.789 311.523C111.607 311.799 111.375 312.062 111.094 312.312C110.812 312.562 110.466 312.766 110.055 312.922C109.648 313.078 109.167 313.156 108.609 313.156ZM121.984 302.633L118.219 313H116.68L121.016 301.625H122.008L121.984 302.633ZM125.141 313L121.367 302.633L121.344 301.625H122.336L126.688 313H125.141ZM124.945 308.789V310.023H118.555V308.789H124.945ZM129.438 306.352V313H127.992V304.547H129.359L129.438 306.352ZM129.094 308.453L128.492 308.43C128.497 307.852 128.583 307.318 128.75 306.828C128.917 306.333 129.151 305.904 129.453 305.539C129.755 305.174 130.115 304.893 130.531 304.695C130.953 304.492 131.419 304.391 131.93 304.391C132.346 304.391 132.721 304.448 133.055 304.562C133.388 304.672 133.672 304.849 133.906 305.094C134.146 305.339 134.328 305.656 134.453 306.047C134.578 306.432 134.641 306.904 134.641 307.461V313H133.188V307.445C133.188 307.003 133.122 306.648 132.992 306.383C132.862 306.112 132.672 305.917 132.422 305.797C132.172 305.672 131.865 305.609 131.5 305.609C131.141 305.609 130.812 305.685 130.516 305.836C130.224 305.987 129.971 306.195 129.758 306.461C129.549 306.727 129.385 307.031 129.266 307.375C129.151 307.714 129.094 308.073 129.094 308.453ZM145.234 302.633L141.469 313H139.93L144.266 301.625H145.258L145.234 302.633ZM148.391 313L144.617 302.633L144.594 301.625H145.586L149.938 313H148.391ZM148.195 308.789V310.023H141.805V308.789H148.195ZM154.625 311.969C154.969 311.969 155.286 311.898 155.578 311.758C155.87 311.617 156.109 311.424 156.297 311.18C156.484 310.93 156.591 310.646 156.617 310.328H157.992C157.966 310.828 157.797 311.294 157.484 311.727C157.177 312.154 156.773 312.5 156.273 312.766C155.773 313.026 155.224 313.156 154.625 313.156C153.99 313.156 153.435 313.044 152.961 312.82C152.492 312.596 152.102 312.289 151.789 311.898C151.482 311.508 151.25 311.06 151.094 310.555C150.943 310.044 150.867 309.505 150.867 308.938V308.609C150.867 308.042 150.943 307.505 151.094 307C151.25 306.49 151.482 306.039 151.789 305.648C152.102 305.258 152.492 304.951 152.961 304.727C153.435 304.503 153.99 304.391 154.625 304.391C155.286 304.391 155.865 304.526 156.359 304.797C156.854 305.062 157.242 305.427 157.523 305.891C157.81 306.349 157.966 306.87 157.992 307.453H156.617C156.591 307.104 156.492 306.789 156.32 306.508C156.154 306.227 155.924 306.003 155.633 305.836C155.346 305.664 155.01 305.578 154.625 305.578C154.182 305.578 153.81 305.667 153.508 305.844C153.211 306.016 152.974 306.25 152.797 306.547C152.625 306.839 152.5 307.164 152.422 307.523C152.349 307.878 152.312 308.24 152.312 308.609V308.938C152.312 309.307 152.349 309.672 152.422 310.031C152.495 310.391 152.617 310.716 152.789 311.008C152.966 311.299 153.203 311.534 153.5 311.711C153.802 311.883 154.177 311.969 154.625 311.969ZM163 311.969C163.344 311.969 163.661 311.898 163.953 311.758C164.245 311.617 164.484 311.424 164.672 311.18C164.859 310.93 164.966 310.646 164.992 310.328H166.367C166.341 310.828 166.172 311.294 165.859 311.727C165.552 312.154 165.148 312.5 164.648 312.766C164.148 313.026 163.599 313.156 163 313.156C162.365 313.156 161.81 313.044 161.336 312.82C160.867 312.596 160.477 312.289 160.164 311.898C159.857 311.508 159.625 311.06 159.469 310.555C159.318 310.044 159.242 309.505 159.242 308.938V308.609C159.242 308.042 159.318 307.505 159.469 307C159.625 306.49 159.857 306.039 160.164 305.648C160.477 305.258 160.867 304.951 161.336 304.727C161.81 304.503 162.365 304.391 163 304.391C163.661 304.391 164.24 304.526 164.734 304.797C165.229 305.062 165.617 305.427 165.898 305.891C166.185 306.349 166.341 306.87 166.367 307.453H164.992C164.966 307.104 164.867 306.789 164.695 306.508C164.529 306.227 164.299 306.003 164.008 305.836C163.721 305.664 163.385 305.578 163 305.578C162.557 305.578 162.185 305.667 161.883 305.844C161.586 306.016 161.349 306.25 161.172 306.547C161 306.839 160.875 307.164 160.797 307.523C160.724 307.878 160.688 308.24 160.688 308.609V308.938C160.688 309.307 160.724 309.672 160.797 310.031C160.87 310.391 160.992 310.716 161.164 311.008C161.341 311.299 161.578 311.534 161.875 311.711C162.177 311.883 162.552 311.969 163 311.969ZM167.609 308.867V308.688C167.609 308.078 167.698 307.513 167.875 306.992C168.052 306.466 168.307 306.01 168.641 305.625C168.974 305.234 169.378 304.932 169.852 304.719C170.326 304.5 170.857 304.391 171.445 304.391C172.039 304.391 172.573 304.5 173.047 304.719C173.526 304.932 173.932 305.234 174.266 305.625C174.604 306.01 174.862 306.466 175.039 306.992C175.216 307.513 175.305 308.078 175.305 308.688V308.867C175.305 309.477 175.216 310.042 175.039 310.562C174.862 311.083 174.604 311.539 174.266 311.93C173.932 312.315 173.529 312.617 173.055 312.836C172.586 313.049 172.055 313.156 171.461 313.156C170.867 313.156 170.333 313.049 169.859 312.836C169.385 312.617 168.979 312.315 168.641 311.93C168.307 311.539 168.052 311.083 167.875 310.562C167.698 310.042 167.609 309.477 167.609 308.867ZM169.055 308.688V308.867C169.055 309.289 169.104 309.688 169.203 310.062C169.302 310.432 169.451 310.76 169.648 311.047C169.852 311.333 170.104 311.56 170.406 311.727C170.708 311.888 171.06 311.969 171.461 311.969C171.857 311.969 172.203 311.888 172.5 311.727C172.802 311.56 173.052 311.333 173.25 311.047C173.448 310.76 173.596 310.432 173.695 310.062C173.799 309.688 173.852 309.289 173.852 308.867V308.688C173.852 308.271 173.799 307.878 173.695 307.508C173.596 307.133 173.445 306.802 173.242 306.516C173.044 306.224 172.794 305.995 172.492 305.828C172.195 305.661 171.846 305.578 171.445 305.578C171.049 305.578 170.701 305.661 170.398 305.828C170.102 305.995 169.852 306.224 169.648 306.516C169.451 306.802 169.302 307.133 169.203 307.508C169.104 307.878 169.055 308.271 169.055 308.688ZM182.289 311.047V304.547H183.742V313H182.359L182.289 311.047ZM182.562 309.266L183.164 309.25C183.164 309.812 183.104 310.333 182.984 310.812C182.87 311.286 182.682 311.698 182.422 312.047C182.161 312.396 181.82 312.669 181.398 312.867C180.977 313.06 180.464 313.156 179.859 313.156C179.448 313.156 179.07 313.096 178.727 312.977C178.388 312.857 178.096 312.672 177.852 312.422C177.607 312.172 177.417 311.846 177.281 311.445C177.151 311.044 177.086 310.562 177.086 310V304.547H178.531V310.016C178.531 310.396 178.573 310.711 178.656 310.961C178.745 311.206 178.862 311.401 179.008 311.547C179.159 311.688 179.326 311.786 179.508 311.844C179.695 311.901 179.888 311.93 180.086 311.93C180.701 311.93 181.188 311.812 181.547 311.578C181.906 311.339 182.164 311.018 182.32 310.617C182.482 310.211 182.562 309.76 182.562 309.266ZM187.391 306.352V313H185.945V304.547H187.312L187.391 306.352ZM187.047 308.453L186.445 308.43C186.451 307.852 186.536 307.318 186.703 306.828C186.87 306.333 187.104 305.904 187.406 305.539C187.708 305.174 188.068 304.893 188.484 304.695C188.906 304.492 189.372 304.391 189.883 304.391C190.299 304.391 190.674 304.448 191.008 304.562C191.341 304.672 191.625 304.849 191.859 305.094C192.099 305.339 192.281 305.656 192.406 306.047C192.531 306.432 192.594 306.904 192.594 307.461V313H191.141V307.445C191.141 307.003 191.076 306.648 190.945 306.383C190.815 306.112 190.625 305.917 190.375 305.797C190.125 305.672 189.818 305.609 189.453 305.609C189.094 305.609 188.766 305.685 188.469 305.836C188.177 305.987 187.924 306.195 187.711 306.461C187.503 306.727 187.339 307.031 187.219 307.375C187.104 307.714 187.047 308.073 187.047 308.453ZM198.328 304.547V305.656H193.758V304.547H198.328ZM195.305 302.492H196.75V310.906C196.75 311.193 196.794 311.409 196.883 311.555C196.971 311.701 197.086 311.797 197.227 311.844C197.367 311.891 197.518 311.914 197.68 311.914C197.799 311.914 197.924 311.904 198.055 311.883C198.19 311.857 198.292 311.836 198.359 311.82L198.367 313C198.253 313.036 198.102 313.07 197.914 313.102C197.732 313.138 197.51 313.156 197.25 313.156C196.896 313.156 196.57 313.086 196.273 312.945C195.977 312.805 195.74 312.57 195.562 312.242C195.391 311.909 195.305 311.461 195.305 310.898V302.492ZM203.164 309.797H201.711C201.716 309.297 201.76 308.888 201.844 308.57C201.932 308.247 202.076 307.953 202.273 307.688C202.471 307.422 202.734 307.12 203.062 306.781C203.302 306.536 203.521 306.307 203.719 306.094C203.922 305.875 204.086 305.641 204.211 305.391C204.336 305.135 204.398 304.831 204.398 304.477C204.398 304.117 204.333 303.807 204.203 303.547C204.078 303.286 203.891 303.086 203.641 302.945C203.396 302.805 203.091 302.734 202.727 302.734C202.424 302.734 202.138 302.789 201.867 302.898C201.596 303.008 201.378 303.177 201.211 303.406C201.044 303.63 200.958 303.924 200.953 304.289H199.508C199.518 303.701 199.664 303.195 199.945 302.773C200.232 302.352 200.617 302.029 201.102 301.805C201.586 301.581 202.128 301.469 202.727 301.469C203.388 301.469 203.951 301.589 204.414 301.828C204.883 302.068 205.24 302.411 205.484 302.859C205.729 303.302 205.852 303.828 205.852 304.438C205.852 304.906 205.755 305.339 205.562 305.734C205.375 306.125 205.133 306.492 204.836 306.836C204.539 307.18 204.224 307.508 203.891 307.82C203.604 308.086 203.411 308.385 203.312 308.719C203.214 309.052 203.164 309.411 203.164 309.797ZM201.648 312.273C201.648 312.039 201.721 311.841 201.867 311.68C202.013 311.518 202.224 311.438 202.5 311.438C202.781 311.438 202.995 311.518 203.141 311.68C203.286 311.841 203.359 312.039 203.359 312.273C203.359 312.497 203.286 312.69 203.141 312.852C202.995 313.013 202.781 313.094 202.5 313.094C202.224 313.094 202.013 313.013 201.867 312.852C201.721 312.69 201.648 312.497 201.648 312.273Z" fill="black" fill-opacity="0.4"/>
<path d="M217.729 311.737V313H213.088V311.737H217.729ZM213.533 303.758V313H211.939V303.758H213.533ZM218.516 309.642V309.496C218.516 309.001 218.588 308.542 218.731 308.119C218.875 307.691 219.083 307.321 219.354 307.008C219.629 306.69 219.963 306.445 220.356 306.271C220.754 306.094 221.203 306.005 221.702 306.005C222.206 306.005 222.654 306.094 223.048 306.271C223.446 306.445 223.782 306.69 224.057 307.008C224.332 307.321 224.542 307.691 224.686 308.119C224.829 308.542 224.901 309.001 224.901 309.496V309.642C224.901 310.137 224.829 310.596 224.686 311.02C224.542 311.443 224.332 311.813 224.057 312.13C223.782 312.444 223.448 312.689 223.054 312.867C222.661 313.04 222.214 313.127 221.715 313.127C221.211 313.127 220.761 313.04 220.363 312.867C219.969 312.689 219.635 312.444 219.36 312.13C219.085 311.813 218.875 311.443 218.731 311.02C218.588 310.596 218.516 310.137 218.516 309.642ZM220.045 309.496V309.642C220.045 309.951 220.077 310.243 220.141 310.518C220.204 310.793 220.304 311.034 220.439 311.242C220.574 311.449 220.748 311.612 220.959 311.73C221.171 311.849 221.423 311.908 221.715 311.908C221.998 311.908 222.244 311.849 222.451 311.73C222.663 311.612 222.836 311.449 222.972 311.242C223.107 311.034 223.207 310.793 223.27 310.518C223.338 310.243 223.372 309.951 223.372 309.642V309.496C223.372 309.191 223.338 308.904 223.27 308.633C223.207 308.358 223.105 308.114 222.965 307.903C222.83 307.691 222.656 307.526 222.445 307.408C222.237 307.285 221.99 307.224 221.702 307.224C221.414 307.224 221.165 307.285 220.953 307.408C220.746 307.526 220.574 307.691 220.439 307.903C220.304 308.114 220.204 308.358 220.141 308.633C220.077 308.904 220.045 309.191 220.045 309.496ZM230.583 306.132H231.973V312.81C231.973 313.427 231.841 313.952 231.579 314.384C231.317 314.815 230.951 315.143 230.481 315.368C230.011 315.596 229.467 315.71 228.85 315.71C228.587 315.71 228.295 315.672 227.974 315.596C227.656 315.52 227.347 315.397 227.047 315.228C226.751 315.063 226.503 314.845 226.304 314.574L227.021 313.673C227.267 313.965 227.538 314.179 227.834 314.314C228.13 314.449 228.441 314.517 228.767 314.517C229.118 314.517 229.417 314.451 229.662 314.32C229.912 314.193 230.104 314.005 230.24 313.755C230.375 313.506 230.443 313.201 230.443 312.841V307.687L230.583 306.132ZM225.917 309.642V309.509C225.917 308.988 225.98 308.514 226.107 308.087C226.234 307.655 226.416 307.285 226.653 306.976C226.89 306.663 227.178 306.424 227.517 306.259C227.855 306.09 228.238 306.005 228.666 306.005C229.11 306.005 229.489 306.085 229.802 306.246C230.119 306.407 230.384 306.638 230.595 306.938C230.807 307.234 230.972 307.59 231.09 308.004C231.213 308.415 231.304 308.872 231.363 309.375V309.801C231.308 310.292 231.215 310.74 231.084 311.146C230.953 311.553 230.779 311.904 230.563 312.2C230.348 312.496 230.081 312.725 229.764 312.886C229.451 313.047 229.08 313.127 228.653 313.127C228.234 313.127 227.855 313.04 227.517 312.867C227.182 312.693 226.895 312.45 226.653 312.137C226.416 311.824 226.234 311.455 226.107 311.032C225.98 310.605 225.917 310.141 225.917 309.642ZM227.447 309.509V309.642C227.447 309.955 227.476 310.247 227.536 310.518C227.599 310.789 227.694 311.028 227.821 311.235C227.952 311.438 228.118 311.599 228.316 311.718C228.52 311.832 228.759 311.889 229.034 311.889C229.393 311.889 229.688 311.813 229.916 311.661C230.149 311.508 230.326 311.303 230.449 311.045C230.576 310.783 230.665 310.491 230.716 310.169V309.02C230.69 308.77 230.638 308.538 230.557 308.322C230.481 308.106 230.377 307.918 230.246 307.757C230.115 307.592 229.95 307.465 229.751 307.376C229.552 307.283 229.317 307.236 229.046 307.236C228.771 307.236 228.532 307.296 228.329 307.414C228.126 307.533 227.959 307.695 227.828 307.903C227.701 308.11 227.605 308.351 227.542 308.626C227.479 308.902 227.447 309.196 227.447 309.509ZM239.166 306.132V313H237.63V306.132H239.166ZM237.528 304.329C237.528 304.096 237.604 303.904 237.757 303.751C237.913 303.595 238.129 303.517 238.404 303.517C238.675 303.517 238.889 303.595 239.045 303.751C239.202 303.904 239.28 304.096 239.28 304.329C239.28 304.558 239.202 304.748 239.045 304.9C238.889 305.053 238.675 305.129 238.404 305.129C238.129 305.129 237.913 305.053 237.757 304.9C237.604 304.748 237.528 304.558 237.528 304.329ZM242.359 307.598V313H240.829V306.132H242.27L242.359 307.598ZM242.086 309.312L241.591 309.306C241.595 308.819 241.663 308.373 241.794 307.966C241.929 307.56 242.116 307.211 242.353 306.919C242.594 306.627 242.882 306.403 243.216 306.246C243.55 306.085 243.923 306.005 244.333 306.005C244.663 306.005 244.961 306.051 245.228 306.145C245.499 306.233 245.729 306.379 245.92 306.583C246.115 306.786 246.263 307.05 246.364 307.376C246.466 307.698 246.517 308.093 246.517 308.563V313H244.98V308.557C244.98 308.227 244.932 307.966 244.834 307.776C244.741 307.581 244.604 307.444 244.422 307.363C244.244 307.279 244.022 307.236 243.755 307.236C243.493 307.236 243.258 307.291 243.051 307.401C242.843 307.511 242.668 307.662 242.524 307.852C242.384 308.042 242.276 308.263 242.2 308.512C242.124 308.762 242.086 309.028 242.086 309.312Z" fill="black"/>
<path d="M211 314.27H232.766V314.904H211V314.27ZM236.741 314.27H247.291V314.904H236.741V314.27Z" fill="black"/>
<path d="M74.9531 507.68H81.9609C81.8203 509.977 81.1875 512.016 80.0625 513.797C78.9531 515.578 77.3984 516.969 75.3984 517.969C73.4141 518.969 71.0234 519.469 68.2266 519.469C66.0391 519.469 64.0781 519.094 62.3438 518.344C60.6094 517.578 59.125 516.484 57.8906 515.062C56.6719 513.641 55.7422 511.922 55.1016 509.906C54.4609 507.891 54.1406 505.633 54.1406 503.133V500.766C54.1406 498.266 54.4688 496.008 55.125 493.992C55.7969 491.961 56.75 490.234 57.9844 488.812C59.2344 487.391 60.7266 486.297 62.4609 485.531C64.1953 484.766 66.1328 484.383 68.2734 484.383C71.1172 484.383 73.5156 484.898 75.4688 485.93C77.4375 486.961 78.9609 488.383 80.0391 490.195C81.1328 492.008 81.7891 494.07 82.0078 496.383H74.9766C74.8984 495.008 74.625 493.844 74.1562 492.891C73.6875 491.922 72.9766 491.195 72.0234 490.711C71.0859 490.211 69.8359 489.961 68.2734 489.961C67.1016 489.961 66.0781 490.18 65.2031 490.617C64.3281 491.055 63.5938 491.719 63 492.609C62.4062 493.5 61.9609 494.625 61.6641 495.984C61.3828 497.328 61.2422 498.906 61.2422 500.719V503.133C61.2422 504.898 61.375 506.453 61.6406 507.797C61.9062 509.125 62.3125 510.25 62.8594 511.172C63.4219 512.078 64.1406 512.766 65.0156 513.234C65.9062 513.688 66.9766 513.914 68.2266 513.914C69.6953 513.914 70.9062 513.68 71.8594 513.211C72.8125 512.742 73.5391 512.047 74.0391 511.125C74.5547 510.203 74.8594 509.055 74.9531 507.68ZM92.9062 499.172V519H86.1562V493.641H92.5078L92.9062 499.172ZM100.547 493.477L100.43 499.734C100.102 499.688 99.7031 499.648 99.2344 499.617C98.7812 499.57 98.3672 499.547 97.9922 499.547C97.0391 499.547 96.2109 499.672 95.5078 499.922C94.8203 500.156 94.2422 500.508 93.7734 500.977C93.3203 501.445 92.9766 502.016 92.7422 502.688C92.5234 503.359 92.3984 504.125 92.3672 504.984L91.0078 504.562C91.0078 502.922 91.1719 501.414 91.5 500.039C91.8281 498.648 92.3047 497.438 92.9297 496.406C93.5703 495.375 94.3516 494.578 95.2734 494.016C96.1953 493.453 97.25 493.172 98.4375 493.172C98.8125 493.172 99.1953 493.203 99.5859 493.266C99.9766 493.312 100.297 493.383 100.547 493.477ZM114.938 519.469C112.969 519.469 111.203 519.156 109.641 518.531C108.078 517.891 106.75 517.008 105.656 515.883C104.578 514.758 103.75 513.453 103.172 511.969C102.594 510.469 102.305 508.875 102.305 507.188V506.25C102.305 504.328 102.578 502.57 103.125 500.977C103.672 499.383 104.453 498 105.469 496.828C106.5 495.656 107.75 494.758 109.219 494.133C110.688 493.492 112.344 493.172 114.188 493.172C115.984 493.172 117.578 493.469 118.969 494.062C120.359 494.656 121.523 495.5 122.461 496.594C123.414 497.688 124.133 499 124.617 500.531C125.102 502.047 125.344 503.734 125.344 505.594V508.406H105.188V503.906H118.711V503.391C118.711 502.453 118.539 501.617 118.195 500.883C117.867 500.133 117.367 499.539 116.695 499.102C116.023 498.664 115.164 498.445 114.117 498.445C113.227 498.445 112.461 498.641 111.82 499.031C111.18 499.422 110.656 499.969 110.25 500.672C109.859 501.375 109.562 502.203 109.359 503.156C109.172 504.094 109.078 505.125 109.078 506.25V507.188C109.078 508.203 109.219 509.141 109.5 510C109.797 510.859 110.211 511.602 110.742 512.227C111.289 512.852 111.945 513.336 112.711 513.68C113.492 514.023 114.375 514.195 115.359 514.195C116.578 514.195 117.711 513.961 118.758 513.492C119.82 513.008 120.734 512.281 121.5 511.312L124.781 514.875C124.25 515.641 123.523 516.375 122.602 517.078C121.695 517.781 120.602 518.359 119.32 518.812C118.039 519.25 116.578 519.469 114.938 519.469ZM142.875 513.281V501.984C142.875 501.172 142.742 500.477 142.477 499.898C142.211 499.305 141.797 498.844 141.234 498.516C140.688 498.188 139.977 498.023 139.102 498.023C138.352 498.023 137.703 498.156 137.156 498.422C136.609 498.672 136.188 499.039 135.891 499.523C135.594 499.992 135.445 500.547 135.445 501.188H128.695C128.695 500.109 128.945 499.086 129.445 498.117C129.945 497.148 130.672 496.297 131.625 495.562C132.578 494.812 133.711 494.227 135.023 493.805C136.352 493.383 137.836 493.172 139.477 493.172C141.445 493.172 143.195 493.5 144.727 494.156C146.258 494.812 147.461 495.797 148.336 497.109C149.227 498.422 149.672 500.062 149.672 502.031V512.883C149.672 514.273 149.758 515.414 149.93 516.305C150.102 517.18 150.352 517.945 150.68 518.602V519H143.859C143.531 518.312 143.281 517.453 143.109 516.422C142.953 515.375 142.875 514.328 142.875 513.281ZM143.766 503.555L143.812 507.375H140.039C139.148 507.375 138.375 507.477 137.719 507.68C137.062 507.883 136.523 508.172 136.102 508.547C135.68 508.906 135.367 509.328 135.164 509.812C134.977 510.297 134.883 510.828 134.883 511.406C134.883 511.984 135.016 512.508 135.281 512.977C135.547 513.43 135.93 513.789 136.43 514.055C136.93 514.305 137.516 514.43 138.188 514.43C139.203 514.43 140.086 514.227 140.836 513.82C141.586 513.414 142.164 512.914 142.57 512.32C142.992 511.727 143.211 511.164 143.227 510.633L145.008 513.492C144.758 514.133 144.414 514.797 143.977 515.484C143.555 516.172 143.016 516.82 142.359 517.43C141.703 518.023 140.914 518.516 139.992 518.906C139.07 519.281 137.977 519.469 136.711 519.469C135.102 519.469 133.641 519.148 132.328 518.508C131.031 517.852 130 516.953 129.234 515.812C128.484 514.656 128.109 513.344 128.109 511.875C128.109 510.547 128.359 509.367 128.859 508.336C129.359 507.305 130.094 506.438 131.062 505.734C132.047 505.016 133.273 504.477 134.742 504.117C136.211 503.742 137.914 503.555 139.852 503.555H143.766ZM167.297 493.641V498.422H152.531V493.641H167.297ZM156.188 487.383H162.938V511.359C162.938 512.094 163.031 512.656 163.219 513.047C163.422 513.438 163.719 513.711 164.109 513.867C164.5 514.008 164.992 514.078 165.586 514.078C166.008 514.078 166.383 514.062 166.711 514.031C167.055 513.984 167.344 513.938 167.578 513.891L167.602 518.859C167.023 519.047 166.398 519.195 165.727 519.305C165.055 519.414 164.312 519.469 163.5 519.469C162.016 519.469 160.719 519.227 159.609 518.742C158.516 518.242 157.672 517.445 157.078 516.352C156.484 515.258 156.188 513.82 156.188 512.039V487.383ZM182.812 519.469C180.844 519.469 179.078 519.156 177.516 518.531C175.953 517.891 174.625 517.008 173.531 515.883C172.453 514.758 171.625 513.453 171.047 511.969C170.469 510.469 170.18 508.875 170.18 507.188V506.25C170.18 504.328 170.453 502.57 171 500.977C171.547 499.383 172.328 498 173.344 496.828C174.375 495.656 175.625 494.758 177.094 494.133C178.562 493.492 180.219 493.172 182.062 493.172C183.859 493.172 185.453 493.469 186.844 494.062C188.234 494.656 189.398 495.5 190.336 496.594C191.289 497.688 192.008 499 192.492 500.531C192.977 502.047 193.219 503.734 193.219 505.594V508.406H173.062V503.906H186.586V503.391C186.586 502.453 186.414 501.617 186.07 500.883C185.742 500.133 185.242 499.539 184.57 499.102C183.898 498.664 183.039 498.445 181.992 498.445C181.102 498.445 180.336 498.641 179.695 499.031C179.055 499.422 178.531 499.969 178.125 500.672C177.734 501.375 177.438 502.203 177.234 503.156C177.047 504.094 176.953 505.125 176.953 506.25V507.188C176.953 508.203 177.094 509.141 177.375 510C177.672 510.859 178.086 511.602 178.617 512.227C179.164 512.852 179.82 513.336 180.586 513.68C181.367 514.023 182.25 514.195 183.234 514.195C184.453 514.195 185.586 513.961 186.633 513.492C187.695 513.008 188.609 512.281 189.375 511.312L192.656 514.875C192.125 515.641 191.398 516.375 190.477 517.078C189.57 517.781 188.477 518.359 187.195 518.812C185.914 519.25 184.453 519.469 182.812 519.469ZM223.312 490.711L214.031 519H206.555L219.234 484.875H223.992L223.312 490.711ZM231.023 519L221.719 490.711L220.969 484.875H225.773L238.523 519H231.023ZM230.602 506.297V511.805H212.578V506.297H230.602ZM251.742 514.195C252.57 514.195 253.305 514.039 253.945 513.727C254.586 513.398 255.086 512.945 255.445 512.367C255.82 511.773 256.016 511.078 256.031 510.281H262.383C262.367 512.062 261.891 513.648 260.953 515.039C260.016 516.414 258.758 517.5 257.18 518.297C255.602 519.078 253.836 519.469 251.883 519.469C249.914 519.469 248.195 519.141 246.727 518.484C245.273 517.828 244.062 516.922 243.094 515.766C242.125 514.594 241.398 513.234 240.914 511.688C240.43 510.125 240.188 508.453 240.188 506.672V505.992C240.188 504.195 240.43 502.523 240.914 500.977C241.398 499.414 242.125 498.055 243.094 496.898C244.062 495.727 245.273 494.812 246.727 494.156C248.18 493.5 249.883 493.172 251.836 493.172C253.914 493.172 255.734 493.57 257.297 494.367C258.875 495.164 260.109 496.305 261 497.789C261.906 499.258 262.367 501 262.383 503.016H256.031C256.016 502.172 255.836 501.406 255.492 500.719C255.164 500.031 254.68 499.484 254.039 499.078C253.414 498.656 252.641 498.445 251.719 498.445C250.734 498.445 249.93 498.656 249.305 499.078C248.68 499.484 248.195 500.047 247.852 500.766C247.508 501.469 247.266 502.273 247.125 503.18C247 504.07 246.938 505.008 246.938 505.992V506.672C246.938 507.656 247 508.602 247.125 509.508C247.25 510.414 247.484 511.219 247.828 511.922C248.188 512.625 248.68 513.18 249.305 513.586C249.93 513.992 250.742 514.195 251.742 514.195ZM276.773 514.195C277.602 514.195 278.336 514.039 278.977 513.727C279.617 513.398 280.117 512.945 280.477 512.367C280.852 511.773 281.047 511.078 281.062 510.281H287.414C287.398 512.062 286.922 513.648 285.984 515.039C285.047 516.414 283.789 517.5 282.211 518.297C280.633 519.078 278.867 519.469 276.914 519.469C274.945 519.469 273.227 519.141 271.758 518.484C270.305 517.828 269.094 516.922 268.125 515.766C267.156 514.594 266.43 513.234 265.945 511.688C265.461 510.125 265.219 508.453 265.219 506.672V505.992C265.219 504.195 265.461 502.523 265.945 500.977C266.43 499.414 267.156 498.055 268.125 496.898C269.094 495.727 270.305 494.812 271.758 494.156C273.211 493.5 274.914 493.172 276.867 493.172C278.945 493.172 280.766 493.57 282.328 494.367C283.906 495.164 285.141 496.305 286.031 497.789C286.938 499.258 287.398 501 287.414 503.016H281.062C281.047 502.172 280.867 501.406 280.523 500.719C280.195 500.031 279.711 499.484 279.07 499.078C278.445 498.656 277.672 498.445 276.75 498.445C275.766 498.445 274.961 498.656 274.336 499.078C273.711 499.484 273.227 500.047 272.883 500.766C272.539 501.469 272.297 502.273 272.156 503.18C272.031 504.07 271.969 505.008 271.969 505.992V506.672C271.969 507.656 272.031 508.602 272.156 509.508C272.281 510.414 272.516 511.219 272.859 511.922C273.219 512.625 273.711 513.18 274.336 513.586C274.961 513.992 275.773 514.195 276.773 514.195ZM290.25 506.578V506.086C290.25 504.227 290.516 502.516 291.047 500.953C291.578 499.375 292.352 498.008 293.367 496.852C294.383 495.695 295.633 494.797 297.117 494.156C298.602 493.5 300.305 493.172 302.227 493.172C304.148 493.172 305.859 493.5 307.359 494.156C308.859 494.797 310.117 495.695 311.133 496.852C312.164 498.008 312.945 499.375 313.477 500.953C314.008 502.516 314.273 504.227 314.273 506.086V506.578C314.273 508.422 314.008 510.133 313.477 511.711C312.945 513.273 312.164 514.641 311.133 515.812C310.117 516.969 308.867 517.867 307.383 518.508C305.898 519.148 304.195 519.469 302.273 519.469C300.352 519.469 298.641 519.148 297.141 518.508C295.656 517.867 294.398 516.969 293.367 515.812C292.352 514.641 291.578 513.273 291.047 511.711C290.516 510.133 290.25 508.422 290.25 506.578ZM297 506.086V506.578C297 507.641 297.094 508.633 297.281 509.555C297.469 510.477 297.766 511.289 298.172 511.992C298.594 512.68 299.141 513.219 299.812 513.609C300.484 514 301.305 514.195 302.273 514.195C303.211 514.195 304.016 514 304.688 513.609C305.359 513.219 305.898 512.68 306.305 511.992C306.711 511.289 307.008 510.477 307.195 509.555C307.398 508.633 307.5 507.641 307.5 506.578V506.086C307.5 505.055 307.398 504.086 307.195 503.18C307.008 502.258 306.703 501.445 306.281 500.742C305.875 500.023 305.336 499.461 304.664 499.055C303.992 498.648 303.18 498.445 302.227 498.445C301.273 498.445 300.461 498.648 299.789 499.055C299.133 499.461 298.594 500.023 298.172 500.742C297.766 501.445 297.469 502.258 297.281 503.18C297.094 504.086 297 505.055 297 506.086ZM333.422 512.93V493.641H340.172V519H333.82L333.422 512.93ZM334.172 507.727L336.164 507.68C336.164 509.367 335.969 510.938 335.578 512.391C335.188 513.828 334.602 515.078 333.82 516.141C333.039 517.188 332.055 518.008 330.867 518.602C329.68 519.18 328.281 519.469 326.672 519.469C325.438 519.469 324.297 519.297 323.25 518.953C322.219 518.594 321.328 518.039 320.578 517.289C319.844 516.523 319.266 515.547 318.844 514.359C318.438 513.156 318.234 511.711 318.234 510.023V493.641H324.984V510.07C324.984 510.82 325.07 511.453 325.242 511.969C325.43 512.484 325.688 512.906 326.016 513.234C326.344 513.562 326.727 513.797 327.164 513.938C327.617 514.078 328.117 514.148 328.664 514.148C330.055 514.148 331.148 513.867 331.945 513.305C332.758 512.742 333.328 511.977 333.656 511.008C334 510.023 334.172 508.93 334.172 507.727ZM351.938 499.055V519H345.188V493.641H351.516L351.938 499.055ZM350.953 505.43H349.125C349.125 503.555 349.367 501.867 349.852 500.367C350.336 498.852 351.016 497.562 351.891 496.5C352.766 495.422 353.805 494.602 355.008 494.039C356.227 493.461 357.586 493.172 359.086 493.172C360.273 493.172 361.359 493.344 362.344 493.688C363.328 494.031 364.172 494.578 364.875 495.328C365.594 496.078 366.141 497.07 366.516 498.305C366.906 499.539 367.102 501.047 367.102 502.828V519H360.305V502.805C360.305 501.68 360.148 500.805 359.836 500.18C359.523 499.555 359.062 499.117 358.453 498.867C357.859 498.602 357.125 498.469 356.25 498.469C355.344 498.469 354.555 498.648 353.883 499.008C353.227 499.367 352.68 499.867 352.242 500.508C351.82 501.133 351.5 501.867 351.281 502.711C351.062 503.555 350.953 504.461 350.953 505.43ZM384.656 493.641V498.422H369.891V493.641H384.656ZM373.547 487.383H380.297V511.359C380.297 512.094 380.391 512.656 380.578 513.047C380.781 513.438 381.078 513.711 381.469 513.867C381.859 514.008 382.352 514.078 382.945 514.078C383.367 514.078 383.742 514.062 384.07 514.031C384.414 513.984 384.703 513.938 384.938 513.891L384.961 518.859C384.383 519.047 383.758 519.195 383.086 519.305C382.414 519.414 381.672 519.469 380.859 519.469C379.375 519.469 378.078 519.227 376.969 518.742C375.875 518.242 375.031 517.445 374.438 516.352C373.844 515.258 373.547 513.82 373.547 512.039V487.383Z" fill="black"/>
<path d="M28.5469 394.773V396H22.5234V394.773H28.5469ZM22.8281 384.625V396H21.3203V384.625H22.8281ZM27.75 389.516V390.742H22.5234V389.516H27.75ZM28.4688 384.625V385.859H22.5234V384.625H28.4688ZM31.6328 389.227V396H30.1797V387.547H31.5547L31.6328 389.227ZM31.3359 391.453L30.6641 391.43C30.6693 390.852 30.7448 390.318 30.8906 389.828C31.0365 389.333 31.2526 388.904 31.5391 388.539C31.8255 388.174 32.1823 387.893 32.6094 387.695C33.0365 387.492 33.5312 387.391 34.0938 387.391C34.4896 387.391 34.8542 387.448 35.1875 387.562C35.5208 387.672 35.8099 387.846 36.0547 388.086C36.2995 388.326 36.4896 388.633 36.625 389.008C36.7604 389.383 36.8281 389.836 36.8281 390.367V396H35.3828V390.438C35.3828 389.995 35.3073 389.641 35.1562 389.375C35.0104 389.109 34.8021 388.917 34.5312 388.797C34.2604 388.672 33.9427 388.609 33.5781 388.609C33.151 388.609 32.7943 388.685 32.5078 388.836C32.2214 388.987 31.9922 389.195 31.8203 389.461C31.6484 389.727 31.5234 390.031 31.4453 390.375C31.3724 390.714 31.3359 391.073 31.3359 391.453ZM36.8125 390.656L35.8438 390.953C35.849 390.49 35.9245 390.044 36.0703 389.617C36.2214 389.19 36.4375 388.81 36.7188 388.477C37.0052 388.143 37.3568 387.88 37.7734 387.688C38.1901 387.49 38.6667 387.391 39.2031 387.391C39.6562 387.391 40.0573 387.451 40.4062 387.57C40.7604 387.69 41.0573 387.875 41.2969 388.125C41.5417 388.37 41.7266 388.685 41.8516 389.07C41.9766 389.456 42.0391 389.914 42.0391 390.445V396H40.5859V390.43C40.5859 389.956 40.5104 389.589 40.3594 389.328C40.2135 389.062 40.0052 388.878 39.7344 388.773C39.4688 388.664 39.151 388.609 38.7812 388.609C38.4635 388.609 38.1823 388.664 37.9375 388.773C37.6927 388.883 37.487 389.034 37.3203 389.227C37.1536 389.414 37.026 389.63 36.9375 389.875C36.8542 390.12 36.8125 390.38 36.8125 390.656ZM49.2109 394.555V390.203C49.2109 389.87 49.1432 389.581 49.0078 389.336C48.8776 389.086 48.6797 388.893 48.4141 388.758C48.1484 388.622 47.8203 388.555 47.4297 388.555C47.0651 388.555 46.7448 388.617 46.4688 388.742C46.1979 388.867 45.9844 389.031 45.8281 389.234C45.6771 389.438 45.6016 389.656 45.6016 389.891H44.1562C44.1562 389.589 44.2344 389.289 44.3906 388.992C44.5469 388.695 44.7708 388.427 45.0625 388.188C45.3594 387.943 45.7135 387.75 46.125 387.609C46.5417 387.464 47.0052 387.391 47.5156 387.391C48.1302 387.391 48.6719 387.495 49.1406 387.703C49.6146 387.911 49.9844 388.227 50.25 388.648C50.5208 389.065 50.6562 389.589 50.6562 390.219V394.156C50.6562 394.438 50.6797 394.737 50.7266 395.055C50.7786 395.372 50.8542 395.646 50.9531 395.875V396H49.4453C49.3724 395.833 49.3151 395.612 49.2734 395.336C49.2318 395.055 49.2109 394.794 49.2109 394.555ZM49.4609 390.875L49.4766 391.891H48.0156C47.6042 391.891 47.237 391.924 46.9141 391.992C46.5911 392.055 46.3203 392.151 46.1016 392.281C45.8828 392.411 45.7161 392.576 45.6016 392.773C45.487 392.966 45.4297 393.193 45.4297 393.453C45.4297 393.719 45.4896 393.961 45.6094 394.18C45.7292 394.398 45.9089 394.573 46.1484 394.703C46.3932 394.828 46.6927 394.891 47.0469 394.891C47.4896 394.891 47.8802 394.797 48.2188 394.609C48.5573 394.422 48.8255 394.193 49.0234 393.922C49.2266 393.651 49.3359 393.388 49.3516 393.133L49.9688 393.828C49.9323 394.047 49.8333 394.289 49.6719 394.555C49.5104 394.82 49.2943 395.076 49.0234 395.32C48.7578 395.56 48.4401 395.76 48.0703 395.922C47.7057 396.078 47.2943 396.156 46.8359 396.156C46.263 396.156 45.7604 396.044 45.3281 395.82C44.901 395.596 44.5677 395.297 44.3281 394.922C44.0938 394.542 43.9766 394.117 43.9766 393.648C43.9766 393.195 44.0651 392.797 44.2422 392.453C44.4193 392.104 44.6745 391.815 45.0078 391.586C45.3411 391.352 45.7422 391.174 46.2109 391.055C46.6797 390.935 47.2031 390.875 47.7812 390.875H49.4609ZM54.5 387.547V396H53.0469V387.547H54.5ZM52.9375 385.305C52.9375 385.07 53.0078 384.872 53.1484 384.711C53.2943 384.549 53.5078 384.469 53.7891 384.469C54.0651 384.469 54.276 384.549 54.4219 384.711C54.5729 384.872 54.6484 385.07 54.6484 385.305C54.6484 385.529 54.5729 385.721 54.4219 385.883C54.276 386.039 54.0651 386.117 53.7891 386.117C53.5078 386.117 53.2943 386.039 53.1484 385.883C53.0078 385.721 52.9375 385.529 52.9375 385.305ZM58.3906 384V396H56.9375V384H58.3906Z" fill="black" fill-opacity="0.4"/>
<rect x="0.5" y="361.5" width="399" height="59" rx="9.5" stroke="black" stroke-opacity="0.4"/>
</svg>
